<?xml version="1.0" encoding="UTF-8"?>
<svg id="Capa_1" data-name="Capa 1" xmlns="http://www.w3.org/2000/svg" viewBox="0 0 979.36 795.82">
  <defs>
    <style>
      .cls-1 {
        fill: #faf4ed;
      }
    </style>
  </defs>
  <g>
    <g>
      <path class="cls-1" d="M447.32,295.73v-18.95c0-1.05-.38-1.58-1.24-1.58-2.67,0-6.35.1-10.22.43-.52.05-.72-.05-.62-.38l.67-2.63c.1-.38.19-.57.67-.53,3.1.1,4.49.1,11.65.1h4.87c7.02,0,8.59,0,11.69-.1.48-.05.57.1.48.53l-.53,2.72c-.05.24-.19.33-.71.29-3.87-.33-7.21-.43-9.74-.43-.86,0-1.24.53-1.24,1.58v18.95c0,3.59.29,6.69.41,9.29.01.32-.25.59-.57.59h-5.34c-.33,0-.59-.27-.57-.6.14-2.6.35-5.7.35-9.28Z"/>
      <path class="cls-1" d="M477.6,295.73v-13.65c0-3.46-.15-6.46-.29-9-.03-.48.36-.88.84-.88h4.63c.48,0,.86.4.84.88-.13,2.54-.29,5.54-.29,9v4.39c0,1.19,1.19,1.19,2.2,1.19h12.12c1,0,2.2,0,2.2-1.19v-4.39c0-3.46-.15-6.46-.29-9-.03-.48.36-.88.84-.88h4.63c.48,0,.86.4.84.88-.13,2.54-.29,5.54-.29,9v13.65c0,3.46.15,6.46.29,9,.03.48-.36.88-.84.88h-4.63c-.48,0-.86-.4-.84-.88.13-2.54.29-5.54.29-9v-3.87c0-1.19-1.19-1.19-2.2-1.19h-12.12c-1,0-2.2,0-2.2,1.19v3.87c0,3.46.15,6.46.29,9,.03.48-.36.88-.84.88h-4.63c-.48,0-.86-.4-.84-.88.13-2.54.29-5.54.29-9Z"/>
      <path class="cls-1" d="M532.74,305.47c-2.92,0-6.71,0-10.64.11-.49.01-.89-.39-.87-.88.13-2.54.24-5.53.24-8.97v-13.65c0-3.45-.11-6.44-.24-8.97-.02-.49.37-.89.86-.88,3.92.11,7.65.11,10.35.11s6.06,0,9.88-.24c.48-.05.57.1.48.53l-.62,2.58c-.05.24-.19.29-.72.24-4.44-.38-8.07-.62-11.69-.62-1.62,0-2.39.53-2.44,1.81-.1,2.05-.14,3.87-.14,5.78v3.48c0,1.24.62,1.48,1.58,1.48h.86c4.11,0,6.4-.05,9.07-.38.38-.05.57.19.38.62l-.86,2.2c-.19.53-.43.53-1.05.48-1.81-.14-5.11-.33-7.97-.33h-.43c-.95,0-1.58.24-1.58,1.48v3.96c0,1.91,0,3.68.14,5.73.1,1.29.81,1.81,2.44,1.81,3.87,0,8.21-.33,12.65-.72.52-.05.76,0,.72.24l-.57,2.72c-.1.43-.1.57-.48.53-3.82-.24-6.44-.24-9.36-.24Z"/>
    </g>
    <g>
      <path class="cls-1" d="M0,412.7c0-27.01,17.95-58.99,59.89-58.99,11.18,0,20.64,2.67,26.02,5.05,3.84,1.7,4.44,3.8,3.53,6.43l-3.15,9.19c-1.57,3.49-2.87,5.05-5.86,2.88-4.16-3.03-12.11-9.67-31.25-9.67-22.33,0-29.87,13.73-29.87,33.34,0,34.4,26.85,46.92,45.11,46.92,3.02,0,18.86-2.41,24.14-6.03,1.21-.75,4.98,3.47,4.07,4.83-6.34,9.66-27.46,17.5-32.74,17.5-18.71,0-59.89-9.81-59.89-51.45Z"/>
      <path class="cls-1" d="M165.79,461.28c-9.47,0-24.26,0-38.4.39-1.18.03-2.13-.93-2.07-2.11.41-8.16.79-17.85.79-29.06v-43.15c0-11.24-.38-20.95-.8-29.12-.06-1.15.86-2.11,2.02-2.11h19.91c1.15,0,2.07.94,2.02,2.08-.34,8.18-.98,17.9-.98,29.15v41.34c0,6.03,0,11.62.45,18.1.3,4.07,2.56,5.73,7.69,5.73,12.22,0,25.5-1.21,39.53-2.41,1.66-.15,2.41,0,2.26.75l-1.81,9.5c-.3,1.36-.3,1.81-1.51,1.66-12.07-.75-21.27-.75-29.12-.75Z"/>
      <path class="cls-1" d="M232.47,430.5v-43.15c0-11.51-.54-21.42-.98-29.71-.04-.83.62-1.52,1.45-1.52h21.22c.83,0,1.5.68,1.45,1.52-.44,8.3-.98,18.2-.98,29.71v43.15c0,11.51.54,21.42.98,29.71.04.83-.62,1.52-1.45,1.52h-21.22c-.83,0-1.5-.68-1.45-1.52.44-8.3.98-18.2.98-29.71Z"/>
      <path class="cls-1" d="M297.34,430.5v-43.15c0-11.15-.38-20.8-.79-28.93-.06-1.24.94-2.26,2.19-2.23,14.09.39,28.65.39,37.37.39,8,0,17.95,0,30.02-.75,1.51-.15,1.81.3,1.51,1.66l-2.11,8.9c-.15.75-.6.91-2.26.75-14.03-1.21-24.14-1.96-35.6-1.96-5.13,0-7.54,1.66-7.7,5.73-.3,6.49-.45,12.22-.45,18.25v10.41c0,3.92,1.96,4.68,4.98,4.68h2.72c11.92,0,19.46-.15,27.91-1.21,1.21-.15,1.81.6,1.21,1.96l-3.02,8.15c-.45,1.66-1.36,1.66-3.32,1.51-5.73-.45-16.14-1.06-24.14-1.06h-1.36c-3.02,0-4.98.75-4.98,4.68v12.22c0,11.19.63,20.87.97,29.02.05,1.21-.92,2.21-2.14,2.21h-19.67c-1.22,0-2.19-1.01-2.13-2.23.41-8.15.79-17.82.79-29Z"/>
      <path class="cls-1" d="M401.13,430.5v-43.15c0-11.08-.37-20.67-.78-28.78-.07-1.33,1.01-2.42,2.34-2.38,14.04.38,28.52.38,37.22.38,8,0,17.95,0,30.02-.75,1.51-.15,1.81.3,1.51,1.66l-2.11,8.9c-.15.75-.6.91-2.26.75-14.03-1.21-24.14-1.96-35.6-1.96-5.13,0-7.54,1.66-7.69,5.73-.3,6.49-.45,12.22-.45,18.25v10.41c0,3.92,1.96,4.68,4.98,4.68h2.72c11.92,0,19.46-.15,27.91-1.21,1.21-.15,1.81.6,1.21,1.96l-3.02,8.15c-.45,1.66-1.36,1.66-3.32,1.51-5.73-.45-16.14-1.06-24.14-1.06h-1.36c-3.02,0-4.98.75-4.98,4.68v12.22c0,11.13.63,20.75.96,28.87.05,1.29-.99,2.36-2.28,2.36h-19.37c-1.3,0-2.34-1.08-2.27-2.38.41-8.12.78-17.73.78-28.85Z"/>
      <path class="cls-1" d="M537.2,412.7c0-27.01,17.95-58.99,59.89-58.99,17.65,0,31.38,5.88,30.17,9.66l-3.77,11.01c-4.38,12.82-4.22-6.79-37.11-6.79-22.33,0-29.87,13.73-29.87,33.34,0,34.4,26.85,46.92,45.11,46.92,3.02,0,18.86-2.41,24.14-6.03,1.21-.75,4.98,3.47,4.07,4.83-6.34,9.66-27.46,17.5-32.74,17.5-18.71,0-59.89-9.81-59.89-51.45Z"/>
      <path class="cls-1" d="M702.99,461.28c-9.29,0-23.71,0-37.62.37-1.6.04-2.89-1.28-2.82-2.87.4-8,.75-17.42.75-28.27v-43.15c0-11.67-.41-21.69-.84-30.05-.03-.65.48-1.18,1.13-1.18h21.76c.64,0,1.16.52,1.14,1.16-.32,8.37-1.01,18.39-1.01,30.07v41.34c0,6.03,0,11.62.45,18.1.3,4.07,2.56,5.73,7.69,5.73,12.22,0,25.5-1.21,39.53-2.41,1.66-.15,2.41,0,2.26.75l-1.81,9.5c-.3,1.36-.3,1.81-1.51,1.66-12.07-.75-21.27-.75-29.12-.75Z"/>
      <path class="cls-1" d="M766.65,421.9v-34.55c0-11.1-.5-20.7-.93-28.81-.07-1.32.98-2.42,2.3-2.42h19.88c1.32,0,2.37,1.1,2.3,2.42-.43,8.11-.93,17.72-.93,28.81v35.3c0,20.67,11.77,29.42,26.25,29.42s27.61-8.75,27.61-29.42v-19.31c0-15.2-.14-27.71-.84-45.49-.04-.94.71-1.73,1.65-1.73h10.9c.94,0,1.69.8,1.65,1.73-.7,17.78-.84,30.29-.84,45.49v18.25c0,28.06-18.1,42.54-42.7,42.54-21.88,0-46.32-11.47-46.32-42.24Z"/>
      <path class="cls-1" d="M900,461.66c-1.46.03-2.64-1.19-2.57-2.65.4-8.05.77-17.55.77-28.51v-43.15c0-10.96-.36-20.46-.77-28.51-.07-1.47,1.12-2.68,2.59-2.65,13.4.29,23.57-.37,35.59-.37,18.86,0,34.4,8,34.7,24.44.3,11.47-6.94,20.37-19.31,22.93v1.06c14.64,0,28.36,9.81,28.36,26.7,0,19.31-18.41,31.08-42.7,31.08-15.13,0-23.5-.66-36.67-.37ZM934.86,401.23c9.05,0,12.52-6.34,12.52-15.84,0-12.37-6.34-20.82-18.41-20.82-6.18,0-8.6,1.66-8.6,8.75v27.91h14.48ZM935.01,453.28c9.66,0,20.82-2.87,20.82-18.25,0-13.13-7.84-25.2-20.97-25.2h-14.48v32.44c0,6.64,3.62,11.01,14.63,11.01Z"/>
    </g>
    <g>
      <path class="cls-1" d="M317.15,536.43v-13.65c0-3.53-.12-6.58-.25-9.15-.02-.39.3-.72.7-.71,3.81.09,6.22-.12,10.48-.12,7.21,0,12.03,2.96,12.03,8.83,0,5.35-4.15,8.07-8.5,8.5,1.48.95,3.29,2.96,4.96,4.92l4.82,5.63c1.71,2,2.87,3.33,3.96,4.49.41.43.1,1.14-.49,1.14h-5.19c-.21,0-.4-.09-.53-.26l-8.53-10.72c-3.01-3.82-4.3-4.15-7.73-4.2v5.3c0,3.54.2,6.6.31,9.18.02.38-.29.7-.68.7h-4.93c-.39,0-.7-.32-.68-.71.13-2.58.25-5.64.25-9.17ZM324.26,528.94c7.11,0,9.83-1.24,9.83-6.01,0-5.11-3.25-7.64-7.64-7.64-2.77,0-3.58.62-3.58,2.82v10.84h1.39Z"/>
      <path class="cls-1" d="M370.43,546.17c-2.97,0-6.83,0-10.81.12-.4.01-.72-.31-.7-.71.13-2.57.25-5.62.25-9.15v-13.65c0-3.53-.12-6.58-.25-9.15-.02-.4.3-.72.7-.71,3.98.12,7.79.12,10.53.12s6.06,0,9.88-.24c.48-.05.57.1.48.53l-.62,2.58c-.05.24-.19.29-.72.24-4.44-.38-8.07-.62-11.69-.62-1.62,0-2.39.53-2.44,1.81-.1,2.05-.14,3.87-.14,5.78v3.48c0,1.24.62,1.48,1.58,1.48h.86c4.11,0,6.4-.05,9.07-.38.38-.05.57.19.38.62l-.86,2.2c-.19.53-.43.53-1.05.48-1.81-.14-5.11-.33-7.97-.33h-.43c-.95,0-1.58.24-1.58,1.48v3.96c0,1.91,0,3.68.14,5.73.1,1.29.81,1.81,2.44,1.81,3.87,0,8.21-.33,12.65-.72.52-.05.76,0,.72.24l-.57,2.72c-.1.43-.1.57-.48.53-3.82-.24-6.44-.24-9.36-.24Z"/>
      <path class="cls-1" d="M391.96,543.83l.53-2c1.19-4.49,1.96,2.05,10.74,2.05,4.25,0,6.11-1.96,6.11-4.63,0-2.34-1.43-3.34-4.82-5.44l-4.63-2.91c-5.16-3.25-7.26-5.3-7.26-8.88,0-5.82,5.73-9.88,11.65-9.88,3.72,0,8.26,1.58,7.92,2.63l-.67,2.05c-1.29,4.11-1.72-1.48-9.26-1.48-3.58,0-5.2,1.81-5.2,4.25,0,2.15,1.29,3.39,4.49,5.35l5.01,3.1c5.06,3.15,7.11,5.3,7.11,8.78,0,5.92-5.87,10.26-12.22,10.26-4.06,0-9.93-1.72-9.5-3.25Z"/>
      <path class="cls-1" d="M426.91,536.43v-13.65c0-3.54-.16-6.59-.3-9.17-.02-.39.29-.71.68-.71h4.97c.39,0,.7.32.68.71-.14,2.58-.3,5.63-.3,9.17v13.65c0,3.54.16,6.59.3,9.17.02.39-.29.71-.68.71h-4.97c-.39,0-.7-.32-.68-.71.14-2.58.3-5.64.3-9.17Z"/>
      <path class="cls-1" d="M448.98,546.29c-.39,0-.71-.31-.69-.71.13-2.57.25-5.63.25-9.15v-13.65c0-3.53-.12-6.58-.25-9.15-.02-.39.3-.72.69-.71,4.11.1,8.96-.12,11.25-.12,11.55,0,17.81,6.87,17.81,16.09s-6.25,17.52-17.85,17.52c-2.16,0-7.09-.21-11.21-.12ZM459.71,543.88c8.73,0,12.6-4.2,12.6-12.27,0-9.12-4.96-16.28-14.51-16.28-2.43,0-3.53.57-3.53,2.53v23.1c0,2.1,1.77,2.91,5.44,2.91Z"/>
      <path class="cls-1" d="M502.02,546.17c-2.97,0-6.83,0-10.82.12-.4.01-.72-.31-.7-.71.13-2.57.25-5.62.25-9.15v-13.65c0-3.53-.12-6.58-.25-9.15-.02-.4.3-.72.7-.71,3.98.12,7.79.12,10.53.12s6.06,0,9.88-.24c.48-.05.57.1.48.53l-.62,2.58c-.05.24-.19.29-.72.24-4.44-.38-8.07-.62-11.69-.62-1.62,0-2.39.53-2.43,1.81-.1,2.05-.14,3.87-.14,5.78v3.48c0,1.24.62,1.48,1.58,1.48h.86c4.11,0,6.4-.05,9.07-.38.38-.05.57.19.38.62l-.86,2.2c-.19.53-.43.53-1.05.48-1.81-.14-5.11-.33-7.97-.33h-.43c-.95,0-1.58.24-1.58,1.48v3.96c0,1.91,0,3.68.14,5.73.1,1.29.81,1.81,2.43,1.81,3.87,0,8.21-.33,12.65-.72.53-.05.76,0,.72.24l-.57,2.72c-.1.43-.1.57-.48.53-3.82-.24-6.44-.24-9.36-.24Z"/>
      <path class="cls-1" d="M526.08,531.37v-3.44c0-6.73-.1-10.6-.53-14.42-.05-.43.05-.62.43-.62h1.48c.48,0,.81.05,1.15.43l22.82,23.77v-9.26c0-4.76-.04-8.69-.26-14.23-.01-.38.29-.71.68-.71h2.36c.38,0,.69.32.68.71-.21,5.54-.26,9.47-.26,14.23v3.44c0,6.73.1,10.6.52,14.42.05.43-.05.62-.43.62h-1.48c-.48,0-.81-.05-1.15-.43l-22.82-23.77v9.26c0,4.76.04,8.69.26,14.23.01.38-.29.71-.68.71h-2.36c-.38,0-.69-.32-.68-.71.21-5.54.26-9.47.26-14.23Z"/>
      <path class="cls-1" d="M568.29,530.47c0-8.5,5.87-18.33,18.76-18.33,5.54,0,9.93,1.81,9.55,2.91l-1.05,3.15c-1.19,3.58-1.29-2.24-11.6-2.24-7.11,0-10.36,4.44-10.36,11.31,0,10.74,8.31,15.32,14.99,15.32.86,0,5.2-.76,7.68-2.34.38-.24,1.39.86,1.1,1.29-2,3.01-8.45,5.54-9.93,5.54-8.07,0-19.14-4.73-19.14-16.61Z"/>
      <path class="cls-1" d="M621.62,546.17c-2.97,0-6.83,0-10.81.12-.4.01-.72-.31-.7-.71.13-2.57.25-5.62.25-9.15v-13.65c0-3.53-.12-6.58-.25-9.15-.02-.4.3-.72.7-.71,3.98.12,7.79.12,10.53.12s6.06,0,9.88-.24c.48-.05.57.1.48.53l-.62,2.58c-.05.24-.19.29-.72.24-4.44-.38-8.07-.62-11.69-.62-1.62,0-2.39.53-2.44,1.81-.1,2.05-.14,3.87-.14,5.78v3.48c0,1.24.62,1.48,1.58,1.48h.86c4.11,0,6.4-.05,9.07-.38.38-.05.57.19.38.62l-.86,2.2c-.19.53-.43.53-1.05.48-1.81-.14-5.11-.33-7.97-.33h-.43c-.95,0-1.58.24-1.58,1.48v3.96c0,1.91,0,3.68.14,5.73.1,1.29.81,1.81,2.44,1.81,3.87,0,8.21-.33,12.65-.72.52-.05.76,0,.72.24l-.57,2.72c-.1.43-.1.57-.48.53-3.82-.24-6.44-.24-9.36-.24Z"/>
      <path class="cls-1" d="M643.16,543.83l.52-2c1.19-4.49,1.96,2.05,10.74,2.05,4.25,0,6.11-1.96,6.11-4.63,0-2.34-1.43-3.34-4.82-5.44l-4.63-2.91c-5.16-3.25-7.26-5.3-7.26-8.88,0-5.82,5.73-9.88,11.65-9.88,3.72,0,8.26,1.58,7.92,2.63l-.67,2.05c-1.29,4.11-1.72-1.48-9.26-1.48-3.58,0-5.2,1.81-5.2,4.25,0,2.15,1.29,3.39,4.49,5.35l5.01,3.1c5.06,3.15,7.11,5.3,7.11,8.78,0,5.92-5.87,10.26-12.22,10.26-4.06,0-9.93-1.72-9.5-3.25Z"/>
    </g>
  </g>
  <g>
    <g>
      <path class="cls-1" d="M198.61,761.09v-67.2h-7.5c-11.1,0-14.9,2.47-20.14,15.31h-.72l3.49-17.57c2.06.41,5.86.62,9.97.62h37.81c4.11,0,7.81-.21,9.87-.62l3.6,17.57h-.82c-5.24-12.84-8.94-15.31-20.14-15.31h-7.5v67.2c0,4.01,1.44,4.83,8.53,5.24v.72h-24.97v-.72c7.09-.41,8.53-1.23,8.53-5.24Z"/>
      <path class="cls-1" d="M245.46,761.39v-56.83c0-9.04-.92-10.89-6.06-11.71v-.62c4.62-.62,9.35-2.36,13.26-4.73h.51c-.62,4.11-.62,8.84-.62,17.06v21.37c5.04-4.62,10.28-8.84,17.78-8.84,8.22,0,13.26,5.34,13.26,16.03v28.26c0,4.11,1.44,4.52,6.89,4.93v.72h-20.45v-.72c5.04-.41,6.47-.82,6.47-4.93v-26.92c0-8.94-4.32-12.95-11.1-12.95-4.52,0-8.63,2.47-12.84,5.65v34.22c0,4.11,1.44,4.52,6.47,4.93v.72h-20.45v-.72c5.45-.41,6.89-.82,6.89-4.93Z"/>
      <path class="cls-1" d="M292.52,742.79c0-15.11,9.97-26.1,23.53-26.1,11.61,0,18.8,6.89,19.01,18.6h-35.35c-.1,1.13-.21,2.36-.21,3.6,0,14.9,8.53,24.15,19.11,24.15,7.19,0,13.56-4.42,17.88-12.33l.72.41c-4.42,11.3-13.26,16.95-22.09,16.95-12.54,0-22.61-9.45-22.61-25.28ZM324.79,733.65c2.06,0,2.57-.62,2.57-2.77,0-5.96-3.8-12.64-12.02-12.64-7.6,0-13.87,5.45-15.41,15.41h24.87Z"/>
      <path class="cls-1" d="M408.64,759.44l-7.81-21.78h-26.1l-6.37,17.88c-2.47,6.88-1.03,10.17,8.12,10.79v.72h-21.68v-.72c5.04-.62,8.32-3.08,11.41-11.3l20.14-55.9-1.85-4.73c2.57-.62,5.65-2.16,7.3-4.21h.62c.82,3.6,1.34,5.14,3.8,11.92l19.63,53.95c3.08,8.22,4.32,9.66,11,10.28v.72h-25.59v-.72c8.53-.31,9.15-1.95,7.4-6.89ZM400.11,735.81l-12.33-34.53-12.33,34.53h24.66Z"/>
      <path class="cls-1" d="M436.06,761.39v-30.93c0-6.17-1.85-7.91-6.06-8.63v-.62c4.42-.62,9.56-2.57,13.26-4.52h.51l-.82,12.02c1.44-2.26,2.98-4.21,4.83-6.17,3.39-3.8,6.99-5.86,10.69-5.86,2.77,0,4.42,1.64,4.42,4.11s-1.85,4.11-4.21,4.11c-2.77,0-4.11-2.16-6.37-2.16-2.98,0-6.17,2.98-9.15,7.71v30.93c0,4.11,1.54,4.52,8.94,4.93v.72h-22.92v-.72c5.45-.41,6.89-.82,6.89-4.93Z"/>
      <path class="cls-1" d="M473.57,757.08v-35.25h-5.86v-1.23c6.47-2.36,9.35-7.6,11.72-13.98h1.23v11.1h16.85l-.72,4.11h-16.13v33.71c0,6.27,3.39,8.43,8.12,8.43,3.39,0,6.47-1.13,9.25-2.88l.51.62c-4.11,4.01-9.45,6.37-14.39,6.37-5.96,0-10.59-3.19-10.59-11Z"/>
    </g>
    <g>
      <path class="cls-1" d="M581.93,761.09v-62.89c0-4.01-1.44-4.83-8.53-5.24v-.72h24.35c16.03,0,25.48,6.06,25.48,17.16s-9.45,15.41-16.65,17.06v.21c10.38,1.03,21.37,6.37,21.37,19.11,0,13.56-12.84,21.27-29.18,21.27h-25.38v-.72c7.09-.41,8.53-1.23,8.53-5.24ZM596.42,726.25c12.54,0,19.11-6.17,19.11-15.72,0-11-7.3-16.65-18.7-16.65h-6.99v32.37h6.58ZM598.16,765.4c13.67,0,21.38-7.19,21.38-18.6,0-12.33-9.04-18.91-21.99-18.91h-7.71v32.88c0,3.49.93,4.62,8.32,4.62Z"/>
      <path class="cls-1" d="M634.23,742.79c0-15.11,9.97-26.1,23.53-26.1,11.61,0,18.8,6.89,19.01,18.6h-35.35c-.1,1.13-.21,2.36-.21,3.6,0,14.9,8.53,24.15,19.11,24.15,7.19,0,13.56-4.42,17.88-12.33l.72.41c-4.42,11.3-13.26,16.95-22.09,16.95-12.54,0-22.61-9.45-22.61-25.28ZM666.49,733.65c2.06,0,2.57-.62,2.57-2.77,0-5.96-3.8-12.64-12.02-12.64-7.6,0-13.87,5.45-15.41,15.41h24.87Z"/>
      <path class="cls-1" d="M688.99,761.39v-30.93c0-6.17-1.85-7.91-6.47-8.63v-.62c4.83-.62,9.97-2.57,13.67-4.52h.51c-.62,4.11-.62,8.84-.62,13.77v30.93c0,4.11,1.44,4.52,7.29,4.93v.72h-21.68v-.72c5.86-.41,7.3-.82,7.3-4.93ZM691.56,693.06c2.77,0,4.93,2.16,4.93,4.93s-2.16,4.93-4.93,4.93-4.93-2.16-4.93-4.93,2.16-4.93,4.93-4.93Z"/>
      <path class="cls-1" d="M744.07,761.39v-26.92c0-8.94-4.32-12.95-11.1-12.95-4.62,0-8.63,2.47-12.84,5.65v34.22c0,4.11,1.44,4.52,6.47,4.93v.72h-20.45v-.72c5.45-.41,6.89-.82,6.89-4.93v-30.93c0-6.17-1.85-7.91-6.06-8.63v-.62c4.42-.62,9.56-2.57,13.26-4.52h.51l-.82,9.45c5.04-4.73,10.38-9.04,17.98-9.04,8.22,0,13.26,5.34,13.26,16.03v28.26c0,4.11,1.44,4.52,6.89,4.93v.72h-20.45v-.72c5.04-.41,6.47-.82,6.47-4.93Z"/>
      <path class="cls-1" d="M760.09,783.49c0-5.86,4.32-11.51,13.67-15.72-4.93,0-9.66-1.85-9.66-6.58,0-4.01,3.6-6.99,9.86-9.97-6.89-2.57-11.82-8.43-11.82-16.24,0-10.89,9.04-18.29,19.93-18.29,2.57,0,5.04.62,7.4,1.23,10.79,2.88,12.95-.21,16.44-.21,1.85,0,3.18,1.03,3.18,2.57,0,1.85-1.34,2.98-4.11,2.98-2.06,0-6.78-1.34-11.1-3.08,4.52,2.98,7.6,7.91,7.6,13.98,0,10.89-9.15,18.29-20.04,18.29-2.06,0-4.01-.31-5.96-.82-4.11,2.26-5.86,4.11-5.86,6.27,0,2.57,2.57,3.49,5.65,3.49h14.9c12.23,0,17.78,6.27,17.78,13.36,0,10.58-13.67,21.07-29.18,21.07-11.51,0-18.7-4.73-18.7-12.33ZM783.42,792.63c12.23,0,19.11-6.68,19.11-14.28,0-5.65-4.01-10.58-13.87-10.58h-12.33c-6.58,2.98-9.86,7.71-9.86,12.54,0,7.4,5.75,12.33,16.95,12.33ZM782.5,750.91c6.99,0,12.23-5.55,12.23-15,0-11.2-6.37-17.67-13.67-17.67s-12.23,5.55-12.23,15c0,11.2,6.27,17.67,13.67,17.67Z"/>
    </g>
    <g>
      <path class="cls-1" d="M517.46,743.31c2.66-9.49,8.54-15.42,15.2-15.42,5.71,0,7.88,5.16,5.49,13.54-2.61,9.43-8.43,15.31-15.03,15.31-5.71,0-7.99-5.1-5.66-13.43ZM523.84,755.91c3.88,0,7.6-5.05,10.1-13.81,2.5-8.43,1.72-13.37-1.89-13.43-4.05,0-7.88,5.1-10.37,13.98-2.39,8.32-1.55,13.26,2.16,13.26Z"/>
      <path class="cls-1" d="M525.34,765.95c.11-1.5,1.44-2.66,2.89-2.66,2.16,0,1.66,2.27,3.94,2.27,2.61,0,5.38-2.05,8.71-13.09l7.05-23.02h-2.55l.17-.61,2.61-.11.05-.17c2.83-9.26,11.43-15.59,16.31-15.59,1.83,0,3.05.94,2.89,2.33-.17,1.5-1.44,2.66-2.94,2.66-2.16,0-1.61-2.27-3.94-2.27-2.61,0-5.33,2.05-7.88,10.32l-.78,2.5c1.89-.06,4.55-.11,5.83-.11l-.39,1.17c-1,0-3.72-.11-5.66-.22l-6.1,20.08c-3.83,12.54-12.43,18.86-17.31,18.86-1.83,0-3.05-.94-2.89-2.33Z"/>
    </g>
  </g>
  <g>
    <g>
      <path class="cls-1" d="M463.82,53.11c3.66,0,8.15-3.07,7.02-5.16-.18-.33-1.04-.72-1.93-.15-1.07.67-1.59,1.69-2.14,2.01-2.27,1.33-4.18.54-5.09-.36-1.82-1.82-.66-6.26,1.09-9.46,1.68-3.07,4.21-5.71,5.95-5.75,1.86.05.64,1.87.65,3.13,0,1.72,1.93,2.63,3.47,2.33,2.57-.84,2.96-3.38,2.06-5.63-.91-2.28-3.03-3.93-5.72-3.89-4.07.07-8.33,3.24-10.84,7.72-1.98,3.53-2.86,7.6-1.67,10.67.75,1.94,3.26,4.53,7.15,4.53Z"/>
      <path class="cls-1" d="M507.59,96.88c3.66,0,8.15-3.07,7.02-5.16-.18-.33-1.04-.72-1.93-.15-1.07.67-1.59,1.69-2.14,2.01-2.27,1.33-4.18.54-5.09-.36-1.82-1.82-.66-6.26,1.09-9.46s4.21-5.71,5.95-5.75c1.86.05.64,1.87.65,3.13,0,1.72,1.93,2.63,3.47,2.33,2.57-.84,2.96-3.38,2.06-5.63s-3.03-3.93-5.72-3.89c-4.07.07-8.33,3.24-10.84,7.72-1.98,3.53-2.86,7.6-1.67,10.67.75,1.94,3.26,4.53,7.15,4.53Z"/>
    </g>
    <path class="cls-1" d="M543.01,9.51c-.71-2.24-4.64-3.48-8.88-2.48-5.18,1.23-9.14,5.25-12.02,9.25C513.82,5.87,502.02,0,487.71,0,458.74,0,440.01,24.03,440.01,61.23c0,26.16,9.27,45.8,24.85,55.15-5.45,7.81-7.32,7.23-7.32,7.23-3.39-.46-5.6,1.1-5.89,3.97-.24,2.38,1.79,4.25,4.81,4.06,4.06-.25,7.84-4.29,11.73-9.79.3-.43.92-1.43,1.78-2.86,5.34,2.26,11.28,3.46,17.74,3.46,28.97,0,47.7-24.03,47.7-61.23,0-15.88-3.42-29.34-9.59-39.58,1.72-2.83,3.02-4.86,3.66-5.64,4.11-5.03,7.28-4.49,10.17-2.99,1.63.85,4.13-1.09,3.36-3.51ZM512.19,19.18c1.29.67,3.11-.4,3.44-2.08,1.11,1.39,2.15,2.88,3.12,4.46-.45.78-.84,1.49-1.18,2.08-.87,1.54-6.73,12.09-14.24,25.53-1.66,2.97-4.36,5.22-7.59,6.31-4.35,1.47-8.84,2.99-13.23,4.48-.99.34-1.98.67-2.96,1,3.46-6.12,6.15-10.9,6.15-10.9,0,0,12.58-23.34,16.31-27.91,4.11-5.03,7.28-4.49,10.17-2.99ZM447.25,61.23c0-34.89,15.55-57.68,40.46-57.68,7.49,0,14.12,2.07,19.75,5.9,1.51,1.03,1.04,3.32-.74,3.73-.02,0-.04,0-.06.01-8.81,2.09-14.1,12.28-16.56,16.62-1.68,2.96-10.71,20.04-18.37,33.79-11.62,3.89-20.64,6.83-20.64,6.83-1.16.36-2.29.32-3.43.35-.27-3.07-.41-6.26-.41-9.56ZM454.06,88.25c-1.15-.15-2.16-.07-3.01.21-1.15-3.64-2.05-7.55-2.68-11.73.21-.05.42-.11.61-.18.97-.32,2.68-1.13,3.42-1.43.28-.11,7.07-2.3,15.7-5.07-2.09,3.66-3.93,6.76-5.28,8.83-6.56,10.06-8.76,9.37-8.76,9.37ZM467.3,112.66c-4.94-3.49-9.05-8.38-12.24-14.44-.53-1-.15-2.27.87-2.78,2.98-1.49,5.85-4.8,8.78-8.94,1.08-1.53,4.61-7.57,8.47-14.31,1.7-2.97,4.45-5.19,7.7-6.24,5.82-1.87,11.52-3.71,15.97-5.15-11.66,20.83-24.78,44.11-29.54,51.86ZM528.17,61.23c0,34.89-15.25,57.68-40.46,57.68-5.76,0-10.99-1.2-15.64-3.45,8.5-14.48,27.28-47.61,27.28-47.61,0,0,2.2-3.94,5.41-9.64.06-.02.13-.04.18-.06,11.84-4.04,20.07-4.9,22.91-5.18.2,2.67.32,5.42.32,8.26ZM527,45.49c-.6.07-1.25.19-1.95.36-1.53.38-7.89,2.46-16.29,5.27,4.26-7.52,9.24-16.25,13.3-23.16,2.25,5.16,3.92,11.03,4.93,17.53Z"/>
  </g>
</svg>