<?xml version="1.0" encoding="UTF-8"?>
<svg id="Capa_1" data-name="Capa 1" xmlns="http://www.w3.org/2000/svg" viewBox="0 0 140.51 179.37">
  <defs>
    <style>
      .cls-1 {
        fill: #faf4ed;
      }
    </style>
  </defs>
  <g>
    <path class="cls-1" d="M32.43,72.35c4.99,0,11.1-4.19,9.57-7.02-.24-.45-1.41-.98-2.63-.21-1.45.92-2.16,2.3-2.92,2.74-3.09,1.81-5.69.74-6.93-.5-2.47-2.48-.9-8.53,1.48-12.88,2.29-4.18,5.73-7.78,8.1-7.83,2.54.07.87,2.55.88,4.26,0,2.34,2.62,3.59,4.73,3.18,3.5-1.14,4.03-4.61,2.8-7.68s-4.12-5.36-7.8-5.3c-5.54.09-11.35,4.41-14.77,10.52-2.7,4.81-3.9,10.36-2.27,14.54,1.03,2.64,4.45,6.17,9.74,6.17Z"/>
    <path class="cls-1" d="M92.06,131.98c4.99,0,11.1-4.19,9.57-7.02-.24-.45-1.41-.98-2.63-.21-1.45.92-2.16,2.3-2.92,2.74-3.09,1.81-5.69.74-6.93-.5-2.47-2.48-.9-8.53,1.48-12.88s5.73-7.78,8.1-7.83c2.54.07.87,2.55.88,4.26,0,2.34,2.62,3.59,4.73,3.18,3.5-1.14,4.03-4.61,2.8-7.68s-4.12-5.36-7.8-5.3c-5.54.09-11.35,4.41-14.77,10.52-2.7,4.81-3.9,10.36-2.27,14.54,1.03,2.64,4.45,6.17,9.74,6.17Z"/>
  </g>
  <path class="cls-1" d="M140.32,12.95c-.97-3.05-6.32-4.74-12.1-3.37-7.05,1.67-12.45,7.16-16.38,12.6C100.55,7.99,84.47,0,64.98,0,25.51,0,0,32.74,0,83.42c0,35.64,12.63,62.39,33.86,75.14-7.42,10.64-9.97,9.85-9.97,9.85-4.62-.62-7.63,1.49-8.03,5.41-.33,3.24,2.44,5.78,6.55,5.54,5.54-.34,10.69-5.85,15.98-13.34.41-.58,1.26-1.95,2.43-3.9,7.28,3.08,15.37,4.72,24.16,4.72,39.47,0,64.98-32.74,64.98-83.42,0-21.63-4.66-39.98-13.06-53.92,2.34-3.86,4.12-6.62,4.99-7.69,5.6-6.85,9.92-6.12,13.86-4.07,2.22,1.15,5.62-1.49,4.57-4.78ZM98.33,26.14c1.75.91,4.24-.55,4.69-2.83,1.51,1.89,2.92,3.92,4.24,6.07-.61,1.06-1.14,2.03-1.6,2.84-1.18,2.09-9.18,16.48-19.4,34.79-2.26,4.05-5.94,7.11-10.34,8.6-5.93,2-12.05,4.08-18.03,6.11-1.35.46-2.69.91-4.03,1.36,4.72-8.33,8.38-14.85,8.38-14.85,0,0,17.14-31.8,22.23-38.02,5.6-6.85,9.92-6.12,13.86-4.07ZM9.86,83.42C9.86,35.88,31.05,4.84,64.98,4.84c10.2,0,19.24,2.81,26.9,8.03,2.05,1.4,1.42,4.52-1,5.09-.03,0-.05.01-.08.02-12,2.85-19.21,16.74-22.56,22.64-2.28,4.03-14.6,27.31-25.03,46.04-15.83,5.3-28.12,9.31-28.12,9.31-1.58.49-3.12.44-4.67.48-.37-4.19-.55-8.53-.55-13.03ZM19.13,120.23c-1.57-.21-2.95-.1-4.11.28-1.56-4.96-2.79-10.29-3.65-15.98.29-.07.57-.15.84-.24,1.32-.43,3.65-1.54,4.66-1.95.38-.15,9.63-3.13,21.4-6.91-2.85,4.99-5.36,9.21-7.19,12.02-8.94,13.71-11.94,12.77-11.94,12.77ZM37.18,153.48c-6.73-4.76-12.33-11.41-16.68-19.67-.72-1.37-.2-3.1,1.18-3.79,4.05-2.02,7.96-6.54,11.96-12.18,1.48-2.09,6.28-10.32,11.54-19.49,2.32-4.04,6.06-7.07,10.49-8.5,7.93-2.55,15.69-5.05,21.75-7.01-15.89,28.38-33.76,60.09-40.24,70.65ZM120.1,83.42c0,47.54-20.77,78.58-55.12,78.58-7.84,0-14.97-1.64-21.31-4.7,11.58-19.72,37.17-64.86,37.17-64.86,0,0,2.99-5.36,7.37-13.14.08-.03.17-.06.25-.08,16.13-5.5,27.35-6.68,31.21-7.05.28,3.64.43,7.39.43,11.26ZM118.51,61.97c-.82.09-1.7.26-2.65.49-2.09.52-10.75,3.36-22.19,7.18,5.81-10.25,12.59-22.13,18.12-31.55,3.07,7.03,5.34,15.03,6.72,23.88Z"/>
</svg>