<?xml version="1.0" encoding="UTF-8"?>
<svg id="Capa_1" data-name="Capa 1" xmlns="http://www.w3.org/2000/svg" viewBox="0 0 751.9 211.12">
  <defs>
    <style>
      .cls-1 {
        fill: #faf4ed;
      }
    </style>
  </defs>
  <g>
    <path class="cls-1" d="M343.43,18.15V3.6c0-.81-.29-1.21-.95-1.21-2.05,0-4.87.07-7.84.33-.4.04-.55-.04-.48-.29l.51-2.02c.07-.29.15-.44.51-.4,2.38.07,3.45.07,8.94.07h3.74c5.39,0,6.6,0,8.98-.07.37-.04.44.07.37.4l-.4,2.09c-.04.18-.15.26-.55.22-2.97-.26-5.53-.33-7.48-.33-.66,0-.95.4-.95,1.21v14.55c0,2.76.22,5.13.31,7.13.01.25-.19.45-.44.45h-4.1c-.25,0-.45-.21-.44-.46.11-2,.27-4.37.27-7.13Z"/>
    <path class="cls-1" d="M366.67,18.15V7.67c0-2.65-.12-4.96-.22-6.91-.02-.37.27-.68.64-.68h3.55c.37,0,.66.31.64.68-.1,1.95-.22,4.25-.22,6.91v3.37c0,.92.91.92,1.69.92h9.31c.77,0,1.69,0,1.69-.92v-3.37c0-2.65-.12-4.96-.22-6.91-.02-.37.27-.68.64-.68h3.55c.37,0,.66.31.64.68-.1,1.95-.22,4.25-.22,6.91v10.48c0,2.65.12,4.96.22,6.91.02.37-.27.68-.64.68h-3.55c-.37,0-.66-.31-.64-.68.1-1.95.22-4.25.22-6.91v-2.97c0-.92-.92-.92-1.69-.92h-9.31c-.77,0-1.69,0-1.69.92v2.97c0,2.65.12,4.96.22,6.91.02.37-.27.68-.64.68h-3.55c-.37,0-.66-.31-.64-.68.1-1.95.22-4.25.22-6.91Z"/>
    <path class="cls-1" d="M409.01,25.62c-2.25,0-5.15,0-8.17.09-.38.01-.68-.3-.66-.68.1-1.95.18-4.24.18-6.89V7.67c0-2.65-.09-4.94-.18-6.89-.02-.38.29-.69.66-.68,3.01.09,5.87.09,7.95.09s4.65,0,7.59-.18c.37-.04.44.07.37.4l-.48,1.98c-.04.18-.15.22-.55.18-3.41-.29-6.19-.48-8.98-.48-1.25,0-1.83.4-1.87,1.39-.07,1.58-.11,2.97-.11,4.43v2.68c0,.95.48,1.14,1.21,1.14h.66c3.15,0,4.91-.04,6.96-.29.29-.04.44.15.29.48l-.66,1.69c-.15.4-.33.4-.81.37-1.39-.11-3.92-.26-6.12-.26h-.33c-.73,0-1.21.18-1.21,1.14v3.04c0,1.47,0,2.82.11,4.4.07.99.62,1.39,1.87,1.39,2.97,0,6.3-.26,9.71-.55.4-.04.59,0,.55.18l-.44,2.09c-.07.33-.07.44-.37.4-2.93-.18-4.95-.18-7.18-.18Z"/>
  </g>
  <g>
    <path class="cls-1" d="M0,107.95c0-20.73,13.78-45.29,45.98-45.29,8.58,0,15.85,2.05,19.98,3.88,2.94,1.3,3.41,2.91,2.71,4.94l-2.42,7.05c-1.21,2.68-2.2,3.88-4.5,2.21-3.2-2.32-9.3-7.42-24-7.42-17.14,0-22.93,10.54-22.93,25.6,0,26.41,20.62,36.02,34.63,36.02,2.32,0,14.48-1.85,18.53-4.63.93-.58,3.82,2.66,3.13,3.71-4.87,7.41-21.08,13.44-25.14,13.44-14.36,0-45.98-7.53-45.98-39.5Z"/>
    <path class="cls-1" d="M127.29,145.25c-7.27,0-18.63,0-29.48.3-.9.02-1.63-.71-1.59-1.62.32-6.27.61-13.7.61-22.31v-33.13c0-8.63-.29-16.08-.61-22.36-.04-.89.66-1.62,1.55-1.62h15.29c.88,0,1.59.72,1.55,1.6-.26,6.28-.75,13.74-.75,22.38v31.74c0,4.63,0,8.92.35,13.9.23,3.13,1.97,4.4,5.91,4.4,9.38,0,19.58-.93,30.35-1.85,1.27-.12,1.85,0,1.74.58l-1.39,7.3c-.23,1.04-.23,1.39-1.16,1.27-9.27-.58-16.33-.58-22.35-.58Z"/>
    <path class="cls-1" d="M178.48,121.62v-33.13c0-8.84-.41-16.44-.75-22.81-.03-.64.48-1.16,1.12-1.16h16.29c.64,0,1.15.52,1.12,1.16-.34,6.37-.75,13.98-.75,22.81v33.13c0,8.84.41,16.44.75,22.81.03.64-.48,1.16-1.12,1.16h-16.29c-.64,0-1.15-.52-1.12-1.16.34-6.37.75-13.98.75-22.81Z"/>
    <path class="cls-1" d="M228.28,121.62v-33.13c0-8.56-.29-15.97-.6-22.21-.05-.95.72-1.74,1.68-1.71,10.82.3,21.99.3,28.69.3,6.14,0,13.78,0,23.05-.58,1.16-.12,1.39.23,1.16,1.27l-1.62,6.83c-.12.58-.46.7-1.74.58-10.77-.93-18.53-1.51-27.34-1.51-3.94,0-5.79,1.27-5.91,4.4-.23,4.98-.35,9.38-.35,14.01v7.99c0,3.01,1.5,3.59,3.82,3.59h2.08c9.15,0,14.94-.12,21.43-.93.93-.12,1.39.46.93,1.51l-2.32,6.25c-.35,1.27-1.04,1.27-2.55,1.16-4.4-.35-12.39-.81-18.53-.81h-1.04c-2.32,0-3.82.58-3.82,3.59v9.38c0,8.59.49,16.02.75,22.28.04.93-.71,1.69-1.64,1.69h-15.1c-.94,0-1.68-.78-1.64-1.71.32-6.26.61-13.68.61-22.26Z"/>
    <path class="cls-1" d="M307.96,121.62v-33.13c0-8.51-.29-15.87-.6-22.09-.05-1.02.77-1.86,1.79-1.83,10.78.29,21.9.29,28.57.29,6.14,0,13.78,0,23.05-.58,1.16-.12,1.39.23,1.16,1.27l-1.62,6.83c-.12.58-.46.7-1.74.58-10.77-.93-18.53-1.51-27.34-1.51-3.94,0-5.79,1.27-5.91,4.4-.23,4.98-.35,9.38-.35,14.01v7.99c0,3.01,1.51,3.59,3.82,3.59h2.09c9.15,0,14.94-.12,21.43-.93.93-.12,1.39.46.93,1.51l-2.32,6.25c-.35,1.27-1.04,1.27-2.55,1.16-4.4-.35-12.39-.81-18.53-.81h-1.04c-2.32,0-3.82.58-3.82,3.59v9.38c0,8.54.48,15.93.74,22.17.04.99-.76,1.81-1.75,1.81h-14.87c-1,0-1.8-.83-1.75-1.83.31-6.23.6-13.61.6-22.15Z"/>
    <path class="cls-1" d="M412.43,107.95c0-20.73,13.78-45.29,45.98-45.29,13.55,0,24.09,4.52,23.17,7.41l-2.9,8.46c-3.36,9.85-3.24-5.21-28.49-5.21-17.14,0-22.93,10.54-22.93,25.6,0,26.41,20.62,36.02,34.63,36.02,2.32,0,14.48-1.85,18.53-4.63.93-.58,3.82,2.66,3.13,3.71-4.87,7.41-21.08,13.44-25.14,13.44-14.36,0-45.98-7.53-45.98-39.5Z"/>
    <path class="cls-1" d="M539.71,145.25c-7.13,0-18.21,0-28.88.28-1.23.03-2.22-.98-2.16-2.21.3-6.14.58-13.37.58-21.71v-33.13c0-8.96-.32-16.65-.65-23.07-.03-.5.37-.9.87-.9h16.71c.49,0,.89.4.87.89-.25,6.43-.78,14.12-.78,23.08v31.74c0,4.63,0,8.92.35,13.9.23,3.13,1.97,4.4,5.91,4.4,9.38,0,19.58-.93,30.35-1.85,1.27-.12,1.85,0,1.74.58l-1.39,7.3c-.23,1.04-.23,1.39-1.16,1.27-9.27-.58-16.33-.58-22.35-.58Z"/>
    <path class="cls-1" d="M588.59,115.01v-26.52c0-8.52-.38-15.89-.71-22.12-.05-1.01.75-1.86,1.77-1.86h15.26c1.01,0,1.82.84,1.77,1.86-.33,6.23-.71,13.6-.71,22.12v27.1c0,15.87,9.03,22.59,20.15,22.59s21.2-6.72,21.2-22.59v-14.83c0-11.67-.11-21.28-.64-34.92-.03-.72.55-1.33,1.27-1.33h8.37c.72,0,1.29.61,1.27,1.33-.53,13.65-.64,23.25-.64,34.92v14.01c0,21.54-13.9,32.66-32.78,32.66-16.79,0-35.56-8.8-35.56-32.43Z"/>
    <path class="cls-1" d="M690.96,145.54c-1.12.02-2.03-.91-1.97-2.03.31-6.18.59-13.47.59-21.89v-33.13c0-8.41-.28-15.71-.59-21.89-.06-1.13.86-2.06,1.99-2.03,10.29.22,18.09-.29,27.32-.29,14.48,0,26.41,6.14,26.64,18.76.23,8.8-5.33,15.64-14.83,17.61v.81c11.24,0,21.78,7.53,21.78,20.5,0,14.83-14.13,23.86-32.78,23.86-11.62,0-18.04-.51-28.15-.29ZM717.73,99.15c6.95,0,9.61-4.86,9.61-12.16,0-9.5-4.86-15.98-14.13-15.98-4.75,0-6.6,1.27-6.6,6.72v21.43h11.12ZM717.84,139.11c7.41,0,15.98-2.2,15.98-14.01,0-10.08-6.02-19.34-16.1-19.34h-11.12v24.9c0,5.1,2.78,8.46,11.23,8.46Z"/>
  </g>
  <g>
    <path class="cls-1" d="M243.49,202.95v-10.48c0-2.71-.09-5.05-.19-7.03-.02-.3.23-.55.54-.54,2.92.07,4.77-.09,8.05-.09,5.53,0,9.24,2.27,9.24,6.78,0,4.1-3.19,6.19-6.52,6.52,1.14.73,2.53,2.27,3.81,3.78l3.7,4.32c1.31,1.53,2.2,2.56,3.04,3.45.31.33.08.87-.38.87h-3.98c-.16,0-.31-.07-.41-.2l-6.55-8.23c-2.31-2.93-3.3-3.19-5.94-3.23v4.07c0,2.72.15,5.07.24,7.05.01.3-.22.54-.52.54h-3.79c-.3,0-.53-.25-.52-.54.1-1.98.19-4.33.19-7.04ZM248.95,197.19c5.46,0,7.55-.95,7.55-4.62,0-3.92-2.49-5.86-5.86-5.86-2.12,0-2.75.48-2.75,2.16v8.32h1.06Z"/>
    <path class="cls-1" d="M284.39,210.42c-2.28,0-5.24,0-8.3.09-.3,0-.55-.24-.54-.54.1-1.98.19-4.32.19-7.03v-10.48c0-2.71-.09-5.05-.19-7.03-.02-.3.23-.55.54-.54,3.06.09,5.98.09,8.08.09s4.65,0,7.59-.18c.37-.04.44.07.37.4l-.48,1.98c-.04.18-.15.22-.55.18-3.41-.29-6.19-.48-8.98-.48-1.25,0-1.83.4-1.87,1.39-.07,1.58-.11,2.97-.11,4.43v2.68c0,.95.48,1.14,1.21,1.14h.66c3.15,0,4.91-.04,6.96-.29.29-.04.44.15.29.48l-.66,1.69c-.15.4-.33.4-.81.37-1.39-.11-3.92-.26-6.12-.26h-.33c-.73,0-1.21.18-1.21,1.14v3.04c0,1.47,0,2.82.11,4.4.07.99.62,1.39,1.87,1.39,2.97,0,6.3-.26,9.71-.55.4-.04.59,0,.55.18l-.44,2.09c-.07.33-.07.44-.37.4-2.93-.18-4.95-.18-7.18-.18Z"/>
    <path class="cls-1" d="M300.93,208.63l.4-1.54c.92-3.44,1.5,1.58,8.24,1.58,3.26,0,4.69-1.5,4.69-3.55,0-1.8-1.1-2.57-3.7-4.18l-3.55-2.24c-3.96-2.49-5.57-4.07-5.57-6.82,0-4.47,4.4-7.59,8.94-7.59,2.86,0,6.34,1.21,6.08,2.02l-.51,1.58c-.99,3.15-1.32-1.14-7.11-1.14-2.75,0-3.99,1.39-3.99,3.26,0,1.65.99,2.6,3.45,4.1l3.85,2.38c3.88,2.42,5.46,4.07,5.46,6.74,0,4.54-4.51,7.88-9.38,7.88-3.11,0-7.62-1.32-7.29-2.49Z"/>
    <path class="cls-1" d="M327.76,202.95v-10.48c0-2.72-.12-5.06-.23-7.04-.02-.3.22-.54.52-.54h3.81c.3,0,.54.25.52.54-.11,1.98-.23,4.33-.23,7.04v10.48c0,2.71.12,5.06.23,7.04.02.3-.22.54-.52.54h-3.81c-.3,0-.54-.25-.52-.54.1-1.98.23-4.33.23-7.04Z"/>
    <path class="cls-1" d="M344.7,210.52c-.3,0-.54-.24-.53-.54.1-1.98.19-4.32.19-7.03v-10.48c0-2.71-.09-5.05-.19-7.03-.02-.3.23-.55.53-.54,3.15.07,6.88-.09,8.64-.09,8.87,0,13.67,5.28,13.67,12.35s-4.8,13.45-13.71,13.45c-1.66,0-5.44-.16-8.6-.09ZM352.94,208.66c6.71,0,9.67-3.22,9.67-9.42,0-7-3.81-12.5-11.14-12.5-1.87,0-2.71.44-2.71,1.94v17.74c0,1.61,1.36,2.24,4.18,2.24Z"/>
    <path class="cls-1" d="M385.42,210.42c-2.28,0-5.24,0-8.3.09-.3,0-.55-.24-.54-.54.1-1.98.19-4.32.19-7.03v-10.48c0-2.71-.09-5.05-.19-7.03-.02-.3.23-.55.54-.54,3.06.09,5.98.09,8.08.09s4.66,0,7.59-.18c.37-.04.44.07.37.4l-.48,1.98c-.04.18-.15.22-.55.18-3.41-.29-6.19-.48-8.98-.48-1.25,0-1.83.4-1.87,1.39-.07,1.58-.11,2.97-.11,4.43v2.68c0,.95.48,1.14,1.21,1.14h.66c3.15,0,4.91-.04,6.96-.29.29-.04.44.15.29.48l-.66,1.69c-.15.4-.33.4-.81.37-1.39-.11-3.92-.26-6.12-.26h-.33c-.73,0-1.21.18-1.21,1.14v3.04c0,1.47,0,2.82.11,4.4.07.99.62,1.39,1.87,1.39,2.97,0,6.3-.26,9.71-.55.4-.04.59,0,.55.18l-.44,2.09c-.07.33-.07.44-.37.4-2.93-.18-4.95-.18-7.18-.18Z"/>
    <path class="cls-1" d="M403.9,199.06v-2.64c0-5.17-.07-8.14-.4-11.07-.04-.33.04-.48.33-.48h1.14c.37,0,.62.04.88.33l17.52,18.25v-7.11c0-3.66-.03-6.67-.2-10.93-.01-.3.22-.54.52-.54h1.81c.3,0,.53.25.52.54-.16,4.25-.2,7.27-.2,10.93v2.64c0,5.17.07,8.14.4,11.07.04.33-.04.48-.33.48h-1.14c-.37,0-.62-.04-.88-.33l-17.52-18.25v7.11c0,3.66.03,6.67.2,10.93.01.3-.22.54-.52.54h-1.81c-.3,0-.53-.25-.52-.54.16-4.25.2-7.27.2-10.93Z"/>
    <path class="cls-1" d="M436.3,198.37c0-6.52,4.51-14.07,14.4-14.07,4.25,0,7.62,1.39,7.33,2.24l-.81,2.42c-.91,2.75-.99-1.72-8.91-1.72-5.46,0-7.95,3.41-7.95,8.69,0,8.25,6.38,11.76,11.51,11.76.66,0,3.99-.59,5.9-1.8.29-.18,1.06.66.84.99-1.54,2.31-6.49,4.25-7.62,4.25-6.19,0-14.7-3.63-14.7-12.75Z"/>
    <path class="cls-1" d="M477.24,210.42c-2.28,0-5.24,0-8.3.09-.3,0-.55-.24-.54-.54.1-1.98.19-4.32.19-7.03v-10.48c0-2.71-.09-5.05-.19-7.03-.02-.3.23-.55.54-.54,3.06.09,5.98.09,8.08.09s4.65,0,7.59-.18c.37-.04.44.07.37.4l-.48,1.98c-.04.18-.15.22-.55.18-3.41-.29-6.19-.48-8.98-.48-1.25,0-1.83.4-1.87,1.39-.07,1.58-.11,2.97-.11,4.43v2.68c0,.95.48,1.14,1.21,1.14h.66c3.15,0,4.91-.04,6.96-.29.29-.04.44.15.29.48l-.66,1.69c-.15.4-.33.4-.81.37-1.39-.11-3.92-.26-6.12-.26h-.33c-.73,0-1.21.18-1.21,1.14v3.04c0,1.47,0,2.82.11,4.4.07.99.62,1.39,1.87,1.39,2.97,0,6.3-.26,9.71-.55.4-.04.59,0,.55.18l-.44,2.09c-.07.33-.07.44-.37.4-2.93-.18-4.95-.18-7.18-.18Z"/>
    <path class="cls-1" d="M493.78,208.63l.4-1.54c.92-3.44,1.5,1.58,8.25,1.58,3.26,0,4.69-1.5,4.69-3.55,0-1.8-1.1-2.57-3.7-4.18l-3.56-2.24c-3.96-2.49-5.57-4.07-5.57-6.82,0-4.47,4.4-7.59,8.94-7.59,2.86,0,6.34,1.21,6.08,2.02l-.51,1.58c-.99,3.15-1.32-1.14-7.11-1.14-2.75,0-4,1.39-4,3.26,0,1.65.99,2.6,3.45,4.1l3.85,2.38c3.88,2.42,5.46,4.07,5.46,6.74,0,4.54-4.51,7.88-9.38,7.88-3.12,0-7.62-1.32-7.29-2.49Z"/>
  </g>
</svg>